<svg viewBox="0 0 570 600" xmlns="http://www.w3.org/2000/svg">
 <g>
  <path fill="#FF7966" d="m254.8 434.56h72.801l26.32-28v-169.68h185.36c6.7188 0 12.32-5.6016 12.32-12.32v-99.117c0-6.7188-5.6016-12.32-12.32-12.32h-185.36v-86.801c0-6.7188-5.6016-12.32-12.32-12.32h-99.121c-6.7188 0-12.32 5.6016-12.32 12.32v86.801h-86.801c-6.7188 0-12.32 5.6016-12.32 12.32v99.121c0 6.7188 5.6016 12.32 12.32 12.32h86.238v73.922l-86.238-0.003907c-6.7188 0-12.32 5.6016-12.32 12.32v99.121c0 6.7188 5.6016 12.32 12.32 12.32h86.238v86.238c0 6.7188 5.6016 12.32 12.32 12.32h47.039c0-1.6797 0.55859-2.8008 1.1211-4.4805l5.0391-20.16h-40.316zm197.68-296.8h73.922v73.922l-73.922-0.003906zm-98.559 0h74.48v73.922l-74.48-0.003906zm-99.121-99.121h73.922v74.48h-73.922zm0 99.121h73.922v73.922l-73.922-0.003906zm0 99.117h73.922v73.922h-73.922zm0 98.562h73.922v74.48h-73.922zm-24.641 74.48h-74.48v-74.48h73.922v74.48zm0-198.24h-74.48v-73.918h73.922v73.918z"/>
  <path fill="#FF7966" d="m561.68 306.88-26.879-24.641c-9.5195-8.9609-24.078-8.3984-33.039 1.1211l-14 15.121c11.199 6.7188 22.398 15.121 33.602 25.199 10.641 10.078 20.16 20.719 27.441 31.359l14-15.121c8.3945-8.957 8.3945-24.078-1.125-33.039z"/>
  <path fill="#FF7966" d="m360.64 496.72c-10.078-9.5195-20.719-16.801-30.238-22.961l-15.68 61.039c-1.6797 6.7188 4.4805 12.32 11.199 10.078l59.922-20.16c-6.1641-7.8359-14.004-17.355-25.203-27.996z"/>
  <path fill="#FF7966" d="m504 342.16c-12.879-12.32-24.641-19.602-34.16-24.641l-126 135.52c11.199 6.7188 22.398 15.121 33.602 25.199 10.641 10.078 20.16 20.719 27.441 31.359l126-136.08c-5.6016-8.3984-14.004-19.039-26.883-31.359z"/>
 </g>
</svg>
