<svg viewBox="0 0 375 82" fill="none" xmlns="http://www.w3.org/2000/svg">
<g filter="url(#filter0_b_303_196)">
<mask id="path-1-inside-1_303_196" fill="white">
<path fill-rule="evenodd" clip-rule="evenodd" d="M145.713 11C151.165 11 155 16.5479 155 22V23C155 40.6731 169.327 55 187 55C204.673 55 219 40.6731 219 23V22C219 16.5479 222.835 11 228.287 11H324.5C335.26 11 340.64 11 344.56 13.4823C346.559 14.7481 348.252 16.4413 349.518 18.44C352 22.3601 352 27.7401 352 38.5C352 49.2599 352 54.6399 349.518 58.56C348.252 60.5587 346.559 62.2519 344.56 63.5177C340.64 66 335.26 66 324.5 66H50.5C39.7401 66 34.3601 66 30.44 63.5177C28.4413 62.2519 26.7481 60.5587 25.4823 58.56C23 54.6399 23 49.2599 23 38.5C23 27.7401 23 22.3601 25.4823 18.44C26.7481 16.4413 28.4413 14.7481 30.44 13.4823C34.3601 11 39.7401 11 50.5 11H145.713Z"/>
</mask>
<path fill-rule="evenodd" clip-rule="evenodd" d="M145.713 11C151.165 11 155 16.5479 155 22V23C155 40.6731 169.327 55 187 55C204.673 55 219 40.6731 219 23V22C219 16.5479 222.835 11 228.287 11H324.5C335.26 11 340.64 11 344.56 13.4823C346.559 14.7481 348.252 16.4413 349.518 18.44C352 22.3601 352 27.7401 352 38.5C352 49.2599 352 54.6399 349.518 58.56C348.252 60.5587 346.559 62.2519 344.56 63.5177C340.64 66 335.26 66 324.5 66H50.5C39.7401 66 34.3601 66 30.44 63.5177C28.4413 62.2519 26.7481 60.5587 25.4823 58.56C23 54.6399 23 49.2599 23 38.5C23 27.7401 23 22.3601 25.4823 18.44C26.7481 16.4413 28.4413 14.7481 30.44 13.4823C34.3601 11 39.7401 11 50.5 11H145.713Z" fill="#4E4E61" fill-opacity="0.75"/>
<path d="M30.44 63.5177L30.975 62.6728L30.44 63.5177ZM25.4823 58.56L24.6375 59.095L25.4823 58.56ZM349.518 58.56L350.363 59.095L349.518 58.56ZM344.56 63.5177L345.095 64.3625L344.56 63.5177ZM344.56 13.4823L345.095 12.6375L344.56 13.4823ZM349.518 18.44L348.673 18.975L349.518 18.44ZM156 23V22H154V23H156ZM187 54C169.879 54 156 40.1208 156 23H154C154 41.2254 168.775 56 187 56V54ZM218 23C218 40.1208 204.121 54 187 54V56C205.225 56 220 41.2254 220 23H218ZM218 22V23H220V22H218ZM228.287 12H324.5V10H228.287V12ZM324.5 65H50.5V67H324.5V65ZM50.5 12H145.713V10H50.5V12ZM24 38.5C24 33.1001 24.0011 29.1223 24.3056 26.0022C24.6085 22.8976 25.2043 20.7484 26.3272 18.975L24.6375 17.905C23.2781 20.0518 22.6327 22.5526 22.315 25.8079C21.9989 29.0478 22 33.1399 22 38.5H24ZM50.5 10C45.1399 10 41.0478 9.99889 37.8079 10.315C34.5526 10.6327 32.0518 11.2781 29.905 12.6375L30.975 14.3272C32.7484 13.2043 34.8976 12.6085 38.0022 12.3056C41.1223 12.0011 45.1001 12 50.5 12V10ZM26.3272 18.975C27.5138 17.1012 29.1012 15.5138 30.975 14.3272L29.905 12.6375C27.7813 13.9823 25.9823 15.7813 24.6375 17.905L26.3272 18.975ZM50.5 65C45.1001 65 41.1223 64.9989 38.0022 64.6944C34.8976 64.3915 32.7484 63.7957 30.975 62.6728L29.905 64.3625C32.0518 65.7219 34.5526 66.3673 37.8079 66.685C41.0478 67.0011 45.1399 67 50.5 67V65ZM22 38.5C22 43.8601 21.9989 47.9522 22.315 51.1921C22.6327 54.4474 23.2781 56.9482 24.6375 59.095L26.3272 58.025C25.2043 56.2516 24.6085 54.1024 24.3056 50.9978C24.0011 47.8777 24 43.8999 24 38.5H22ZM30.975 62.6728C29.1012 61.4862 27.5138 59.8988 26.3272 58.025L24.6375 59.095C25.9823 61.2187 27.7813 63.0177 29.905 64.3625L30.975 62.6728ZM351 38.5C351 43.8999 350.999 47.8777 350.694 50.9978C350.392 54.1024 349.796 56.2516 348.673 58.025L350.363 59.095C351.722 56.9482 352.367 54.4474 352.685 51.1921C353.001 47.9522 353 43.8601 353 38.5H351ZM324.5 67C329.86 67 333.952 67.0011 337.192 66.685C340.447 66.3673 342.948 65.7219 345.095 64.3625L344.025 62.6728C342.252 63.7957 340.102 64.3915 336.998 64.6944C333.878 64.9989 329.9 65 324.5 65V67ZM348.673 58.025C347.486 59.8988 345.899 61.4862 344.025 62.6728L345.095 64.3625C347.219 63.0177 349.018 61.2187 350.363 59.095L348.673 58.025ZM324.5 12C329.9 12 333.878 12.0011 336.998 12.3056C340.102 12.6085 342.252 13.2043 344.025 14.3272L345.095 12.6375C342.948 11.2781 340.447 10.6327 337.192 10.315C333.952 9.99889 329.86 10 324.5 10V12ZM353 38.5C353 33.1399 353.001 29.0478 352.685 25.8079C352.367 22.5526 351.722 20.0518 350.363 17.905L348.673 18.975C349.796 20.7484 350.392 22.8976 350.694 26.0022C350.999 29.1223 351 33.1001 351 38.5H353ZM344.025 14.3272C345.899 15.5138 347.486 17.1012 348.673 18.975L350.363 17.905C349.018 15.7813 347.219 13.9823 345.095 12.6375L344.025 14.3272ZM220 22C220 19.496 220.885 16.9658 222.382 15.0768C223.874 13.1954 225.927 12 228.287 12V10C225.195 10 222.604 11.5785 220.815 13.8341C219.033 16.0821 218 19.0519 218 22H220ZM156 22C156 19.0519 154.967 16.0821 153.185 13.8341C151.396 11.5785 148.805 10 145.713 10V12C148.073 12 150.126 13.1954 151.618 15.0768C153.115 16.9658 154 19.496 154 22H156Z" fill="url(#paint0_linear_303_196)" fill-opacity="0.15" mask="url(#path-1-inside-1_303_196)"/>
</g>
<defs>
<filter id="filter0_b_303_196" x="13" y="1" width="349" height="75" filterUnits="userSpaceOnUse" color-interpolation-filters="sRGB">
<feFlood flood-opacity="0" result="BackgroundImageFix"/>
<feGaussianBlur in="BackgroundImageFix" stdDeviation="5"/>
<feComposite in2="SourceAlpha" operator="in" result="effect1_backgroundBlur_303_196"/>
<feBlend mode="normal" in="SourceGraphic" in2="effect1_backgroundBlur_303_196" result="shape"/>
</filter>
<linearGradient id="paint0_linear_303_196" x1="8" y1="11" x2="42.0973" y2="114.092" gradientUnits="userSpaceOnUse">
<stop stop-color="#CFCFFC"/>
<stop offset="1" stop-color="#CFCFFC" stop-opacity="0"/>
</linearGradient>
</defs>
</svg>
